<svg width="4522" height="337" viewBox="0 0 4522 337" fill="none" xmlns="http://www.w3.org/2000/svg">
<mask id="path-1-outside-1_1094_99" maskUnits="userSpaceOnUse" x="0.138672" y="0.255859" width="4522" height="336" fill="black">
<rect fill="white" x="0.138672" y="0.255859" width="4522" height="336"/>
<path d="M460.177 217.152C460.177 240.635 452.839 260.693 438.162 277.326C423.486 293.96 400.329 306.679 368.693 315.485C337.057 324.291 295.962 328.694 245.41 328.694C194.857 328.694 151.806 324.617 116.256 316.464C81.0323 308.31 54.1253 294.938 35.5349 276.348C17.2708 257.758 8.13867 232.97 8.13867 201.987C8.13867 171.003 17.2708 146.216 35.5349 127.625C54.1253 108.709 81.0323 95.1738 116.256 87.0201C151.806 78.5403 194.857 74.3004 245.41 74.3004C295.962 74.3004 336.894 78.7034 368.204 87.5093C399.514 96.3153 422.507 109.035 437.184 125.668C451.86 142.302 459.362 162.197 459.688 185.353H352.06C346.841 172.633 335.1 162.849 316.836 156C298.572 148.825 274.763 145.237 245.41 145.237C221.601 145.237 200.891 147.031 183.279 150.619C165.667 153.88 151.969 159.588 142.185 167.741C132.726 175.895 127.997 187.31 127.997 201.987C127.997 216.337 132.726 227.589 142.185 235.743C151.643 243.896 165.178 249.604 182.79 252.865C200.402 256.127 221.275 257.758 245.41 257.758C274.763 257.758 298.572 254.333 316.836 247.484C335.426 240.309 347.331 230.198 352.549 217.152H460.177ZM726.87 328.694C675.013 328.694 631.799 324.454 597.227 315.975C562.982 307.495 537.216 293.96 519.931 275.369C502.971 256.779 494.491 232.318 494.491 201.987C494.491 171.655 502.971 147.194 519.931 128.604C537.216 109.687 562.982 95.9891 597.227 87.5093C631.799 78.7034 675.013 74.3004 726.87 74.3004C778.401 74.3004 821.126 78.7034 855.046 87.5093C889.291 95.9891 914.893 109.687 931.853 128.604C948.813 147.194 957.292 171.655 957.292 201.987C957.292 232.318 948.813 256.779 931.853 275.369C914.893 293.96 889.291 307.495 855.046 315.975C821.126 324.454 778.401 328.694 726.87 328.694ZM726.87 257.758C751.005 257.758 771.226 255.801 787.533 251.887C803.841 247.647 816.234 241.45 824.714 233.297C833.194 224.817 837.434 214.38 837.434 201.987C837.434 189.593 833.194 179.156 824.714 170.677C816.56 162.197 804.33 155.837 788.023 151.597C771.715 147.357 751.331 145.237 726.87 145.237C702.735 145.237 682.188 147.357 665.229 151.597C648.595 155.837 635.875 162.197 627.069 170.677C618.59 178.83 614.35 189.267 614.35 201.987C614.35 214.38 618.59 224.817 627.069 233.297C635.549 241.45 648.106 247.647 664.739 251.887C681.699 255.801 702.409 257.758 726.87 257.758ZM996.246 81.6387H1113.66V321.356H996.246V81.6387ZM1289.78 74.3004C1309.02 74.3004 1327.61 76.4204 1345.55 80.6603C1363.49 84.574 1379.47 91.4231 1393.49 101.207C1407.84 110.992 1419.26 124.364 1427.74 141.323C1436.22 158.283 1440.46 179.646 1440.46 205.411V321.356H1323.04V220.088C1323.04 195.627 1316.68 178.341 1303.97 168.23C1291.25 157.794 1268.25 152.575 1234.99 152.575C1217.37 152.575 1200.25 154.532 1183.62 158.446C1167.31 162.36 1152.63 167.089 1139.59 172.633C1126.54 177.852 1116.27 183.07 1108.77 188.288L1107.79 169.698C1109.09 163.828 1113.5 155.674 1121 145.237C1128.82 134.474 1140.08 123.712 1154.75 112.949C1169.43 102.186 1187.86 93.0538 1210.04 85.5525C1232.54 78.0511 1259.12 74.3004 1289.78 74.3004ZM1472.28 81.6387H1759.94V155.022H1472.28V81.6387ZM1557.4 8.25586H1674.82V321.356H1557.4V8.25586ZM1969.29 328.205C1934.07 328.205 1902.76 323.313 1875.36 313.529C1847.97 303.418 1826.28 288.905 1810.3 269.988C1794.64 251.072 1786.81 228.241 1786.81 201.497C1786.81 173.449 1794.64 149.966 1810.3 131.05C1826.28 112.133 1847.97 97.946 1875.36 88.4878C1902.76 79.0296 1934.07 74.3004 1969.29 74.3004C2008.43 74.3004 2042.19 79.6818 2070.56 90.4446C2099.26 100.881 2121.28 115.721 2136.6 134.964C2152.26 153.88 2160.09 176.058 2160.09 201.497C2160.09 220.414 2155.68 237.7 2146.88 253.355C2138.07 268.683 2125.35 282.055 2108.72 293.471C2092.09 304.56 2072.03 313.202 2048.54 319.399C2025.06 325.27 1998.64 328.205 1969.29 328.205ZM2013.32 253.844C2038.11 253.844 2060.78 252.376 2081.32 249.441C2102.2 246.179 2118.83 240.798 2131.22 233.297C2143.94 225.795 2150.3 215.196 2150.3 201.497C2150.3 187.473 2143.94 176.71 2131.22 169.209C2118.83 161.708 2102.2 156.489 2081.32 153.554C2060.78 150.619 2038.11 149.151 2013.32 149.151C1980.05 149.151 1954.29 153.554 1936.02 162.36C1917.76 170.84 1908.63 183.885 1908.63 201.497C1908.63 212.912 1912.71 222.534 1920.86 230.361C1929.01 238.189 1940.92 244.059 1956.57 247.973C1972.23 251.887 1991.14 253.844 2013.32 253.844ZM2150.3 81.6387H2267.72V321.356H2157.15C2157.15 321.356 2156.5 317.605 2155.19 310.104C2154.22 302.603 2153.07 291.84 2151.77 277.816C2150.79 263.791 2150.3 247.321 2150.3 228.404V81.6387ZM2759.12 217.152C2759.12 240.635 2751.79 260.693 2737.11 277.326C2722.43 293.96 2699.28 306.679 2667.64 315.485C2636 324.291 2594.91 328.694 2544.36 328.694C2493.8 328.694 2450.75 324.617 2415.2 316.464C2379.98 308.31 2353.07 294.938 2334.48 276.348C2316.22 257.758 2307.09 232.97 2307.09 201.987C2307.09 171.003 2316.22 146.216 2334.48 127.625C2353.07 108.709 2379.98 95.1738 2415.2 87.0201C2450.75 78.5403 2493.8 74.3004 2544.36 74.3004C2594.91 74.3004 2635.84 78.7034 2667.15 87.5093C2698.46 96.3153 2721.45 109.035 2736.13 125.668C2750.81 142.302 2758.31 162.197 2758.63 185.353H2651.01C2645.79 172.633 2634.05 162.849 2615.78 156C2597.52 148.825 2573.71 145.237 2544.36 145.237C2520.55 145.237 2499.84 147.031 2482.23 150.619C2464.61 153.88 2450.92 159.588 2441.13 167.741C2431.67 175.895 2426.94 187.31 2426.94 201.987C2426.94 216.337 2431.67 227.589 2441.13 235.743C2450.59 243.896 2464.12 249.604 2481.74 252.865C2499.35 256.127 2520.22 257.758 2544.36 257.758C2573.71 257.758 2597.52 254.333 2615.78 247.484C2634.37 240.309 2646.28 230.198 2651.5 217.152H2759.12ZM2786.1 81.6387H3073.76V155.022H2786.1V81.6387ZM2871.22 8.25586H2988.64V321.356H2871.22V8.25586ZM3256.97 81.6387H3374.39V321.356H3256.97V81.6387ZM3550.5 74.3004C3569.75 74.3004 3588.34 76.4204 3606.28 80.6603C3624.21 84.574 3640.19 91.4231 3654.22 101.207C3668.57 110.992 3679.98 124.364 3688.46 141.323C3696.94 158.283 3701.18 179.646 3701.18 205.411V321.356H3583.77V220.088C3583.77 195.627 3577.41 178.341 3564.69 168.23C3551.97 157.794 3528.98 152.575 3495.71 152.575C3478.1 152.575 3460.98 154.532 3444.34 158.446C3428.04 162.36 3413.36 167.089 3400.31 172.633C3387.27 177.852 3376.99 183.07 3369.49 188.288L3368.51 169.698C3369.82 163.828 3374.22 155.674 3381.72 145.237C3389.55 134.474 3400.8 123.712 3415.48 112.949C3430.16 102.186 3448.58 93.0538 3470.76 85.5525C3493.27 78.0511 3519.85 74.3004 3550.5 74.3004ZM3871.43 74.3004C3890.67 74.3004 3909.27 76.4204 3927.2 80.6603C3945.14 84.574 3961.12 91.4231 3975.15 101.207C3989.5 110.992 4000.91 124.364 4009.39 141.323C4017.87 158.283 4022.11 179.646 4022.11 205.411V321.356H3904.7V220.088C3904.7 195.627 3898.34 178.341 3885.62 168.23C3872.9 157.794 3849.91 152.575 3816.64 152.575C3799.03 152.575 3781.9 154.532 3765.27 158.446C3748.96 162.36 3734.29 167.089 3721.24 172.633C3708.2 177.852 3697.92 183.07 3690.42 188.288L3689.44 164.806C3690.75 159.914 3695.64 152.575 3704.12 142.791C3712.6 133.007 3724.5 122.896 3739.83 112.46C3755.49 102.023 3774.24 93.0538 3796.09 85.5525C3818.27 78.0511 3843.38 74.3004 3871.43 74.3004ZM4397 235.253H4512.45C4509.52 254.17 4500.06 270.64 4484.08 284.665C4468.42 298.689 4445.43 309.615 4415.1 317.442C4385.09 324.944 4346.77 328.694 4300.13 328.694C4250.89 328.694 4208.32 324.781 4172.45 316.953C4136.9 309.126 4109.5 295.917 4090.26 277.326C4071.02 258.736 4061.39 233.623 4061.39 201.987C4061.39 170.677 4070.69 145.726 4089.28 127.136C4108.2 108.22 4135.43 94.6846 4170.98 86.5309C4206.53 78.3773 4249.58 74.3004 4300.13 74.3004C4349.71 74.3004 4390.31 78.7034 4421.95 87.5093C4453.58 96.3153 4476.9 110.666 4491.91 130.561C4506.91 150.129 4514.08 176.71 4513.43 210.303H4180.76C4182.39 218.783 4186.96 226.611 4194.46 233.786C4202.29 240.961 4214.19 246.832 4230.17 251.398C4246.48 255.638 4268.17 257.758 4295.24 257.758C4323.29 257.758 4346.28 255.801 4364.22 251.887C4382.48 247.973 4393.41 242.429 4397 235.253ZM4295.24 145.237C4260.67 145.237 4234.25 148.988 4215.99 156.489C4198.05 163.991 4187.45 171.492 4184.19 178.993H4399.44C4397.16 170.514 4388.03 162.849 4372.05 156C4356.07 148.825 4330.46 145.237 4295.24 145.237Z"/>
</mask>
<path d="M460.177 217.152C460.177 240.635 452.839 260.693 438.162 277.326C423.486 293.96 400.329 306.679 368.693 315.485C337.057 324.291 295.962 328.694 245.41 328.694C194.857 328.694 151.806 324.617 116.256 316.464C81.0323 308.31 54.1253 294.938 35.5349 276.348C17.2708 257.758 8.13867 232.97 8.13867 201.987C8.13867 171.003 17.2708 146.216 35.5349 127.625C54.1253 108.709 81.0323 95.1738 116.256 87.0201C151.806 78.5403 194.857 74.3004 245.41 74.3004C295.962 74.3004 336.894 78.7034 368.204 87.5093C399.514 96.3153 422.507 109.035 437.184 125.668C451.86 142.302 459.362 162.197 459.688 185.353H352.06C346.841 172.633 335.1 162.849 316.836 156C298.572 148.825 274.763 145.237 245.41 145.237C221.601 145.237 200.891 147.031 183.279 150.619C165.667 153.88 151.969 159.588 142.185 167.741C132.726 175.895 127.997 187.31 127.997 201.987C127.997 216.337 132.726 227.589 142.185 235.743C151.643 243.896 165.178 249.604 182.79 252.865C200.402 256.127 221.275 257.758 245.41 257.758C274.763 257.758 298.572 254.333 316.836 247.484C335.426 240.309 347.331 230.198 352.549 217.152H460.177ZM726.87 328.694C675.013 328.694 631.799 324.454 597.227 315.975C562.982 307.495 537.216 293.96 519.931 275.369C502.971 256.779 494.491 232.318 494.491 201.987C494.491 171.655 502.971 147.194 519.931 128.604C537.216 109.687 562.982 95.9891 597.227 87.5093C631.799 78.7034 675.013 74.3004 726.87 74.3004C778.401 74.3004 821.126 78.7034 855.046 87.5093C889.291 95.9891 914.893 109.687 931.853 128.604C948.813 147.194 957.292 171.655 957.292 201.987C957.292 232.318 948.813 256.779 931.853 275.369C914.893 293.96 889.291 307.495 855.046 315.975C821.126 324.454 778.401 328.694 726.87 328.694ZM726.87 257.758C751.005 257.758 771.226 255.801 787.533 251.887C803.841 247.647 816.234 241.45 824.714 233.297C833.194 224.817 837.434 214.38 837.434 201.987C837.434 189.593 833.194 179.156 824.714 170.677C816.56 162.197 804.33 155.837 788.023 151.597C771.715 147.357 751.331 145.237 726.87 145.237C702.735 145.237 682.188 147.357 665.229 151.597C648.595 155.837 635.875 162.197 627.069 170.677C618.59 178.83 614.35 189.267 614.35 201.987C614.35 214.38 618.59 224.817 627.069 233.297C635.549 241.45 648.106 247.647 664.739 251.887C681.699 255.801 702.409 257.758 726.87 257.758ZM996.246 81.6387H1113.66V321.356H996.246V81.6387ZM1289.78 74.3004C1309.02 74.3004 1327.61 76.4204 1345.55 80.6603C1363.49 84.574 1379.47 91.4231 1393.49 101.207C1407.84 110.992 1419.26 124.364 1427.74 141.323C1436.22 158.283 1440.46 179.646 1440.46 205.411V321.356H1323.04V220.088C1323.04 195.627 1316.68 178.341 1303.97 168.23C1291.25 157.794 1268.25 152.575 1234.99 152.575C1217.37 152.575 1200.25 154.532 1183.62 158.446C1167.31 162.36 1152.63 167.089 1139.59 172.633C1126.54 177.852 1116.27 183.07 1108.77 188.288L1107.79 169.698C1109.09 163.828 1113.5 155.674 1121 145.237C1128.82 134.474 1140.08 123.712 1154.75 112.949C1169.43 102.186 1187.86 93.0538 1210.04 85.5525C1232.54 78.0511 1259.12 74.3004 1289.78 74.3004ZM1472.28 81.6387H1759.94V155.022H1472.28V81.6387ZM1557.4 8.25586H1674.82V321.356H1557.4V8.25586ZM1969.29 328.205C1934.07 328.205 1902.76 323.313 1875.36 313.529C1847.97 303.418 1826.28 288.905 1810.3 269.988C1794.64 251.072 1786.81 228.241 1786.81 201.497C1786.81 173.449 1794.64 149.966 1810.3 131.05C1826.28 112.133 1847.97 97.946 1875.36 88.4878C1902.76 79.0296 1934.07 74.3004 1969.29 74.3004C2008.43 74.3004 2042.19 79.6818 2070.56 90.4446C2099.26 100.881 2121.28 115.721 2136.6 134.964C2152.26 153.88 2160.09 176.058 2160.09 201.497C2160.09 220.414 2155.68 237.7 2146.88 253.355C2138.07 268.683 2125.35 282.055 2108.72 293.471C2092.09 304.56 2072.03 313.202 2048.54 319.399C2025.06 325.27 1998.64 328.205 1969.29 328.205ZM2013.32 253.844C2038.11 253.844 2060.78 252.376 2081.32 249.441C2102.2 246.179 2118.83 240.798 2131.22 233.297C2143.94 225.795 2150.3 215.196 2150.3 201.497C2150.3 187.473 2143.94 176.71 2131.22 169.209C2118.83 161.708 2102.2 156.489 2081.32 153.554C2060.78 150.619 2038.11 149.151 2013.32 149.151C1980.05 149.151 1954.29 153.554 1936.02 162.36C1917.76 170.84 1908.63 183.885 1908.63 201.497C1908.63 212.912 1912.71 222.534 1920.86 230.361C1929.01 238.189 1940.92 244.059 1956.57 247.973C1972.23 251.887 1991.14 253.844 2013.32 253.844ZM2150.3 81.6387H2267.72V321.356H2157.15C2157.15 321.356 2156.5 317.605 2155.19 310.104C2154.22 302.603 2153.07 291.84 2151.77 277.816C2150.79 263.791 2150.3 247.321 2150.3 228.404V81.6387ZM2759.12 217.152C2759.12 240.635 2751.79 260.693 2737.11 277.326C2722.43 293.96 2699.28 306.679 2667.64 315.485C2636 324.291 2594.91 328.694 2544.36 328.694C2493.8 328.694 2450.75 324.617 2415.2 316.464C2379.98 308.31 2353.07 294.938 2334.48 276.348C2316.22 257.758 2307.09 232.97 2307.09 201.987C2307.09 171.003 2316.22 146.216 2334.48 127.625C2353.07 108.709 2379.98 95.1738 2415.2 87.0201C2450.75 78.5403 2493.8 74.3004 2544.36 74.3004C2594.91 74.3004 2635.84 78.7034 2667.15 87.5093C2698.46 96.3153 2721.45 109.035 2736.13 125.668C2750.81 142.302 2758.31 162.197 2758.63 185.353H2651.01C2645.79 172.633 2634.05 162.849 2615.78 156C2597.52 148.825 2573.71 145.237 2544.36 145.237C2520.55 145.237 2499.84 147.031 2482.23 150.619C2464.61 153.88 2450.92 159.588 2441.13 167.741C2431.67 175.895 2426.94 187.31 2426.94 201.987C2426.94 216.337 2431.67 227.589 2441.13 235.743C2450.59 243.896 2464.12 249.604 2481.74 252.865C2499.35 256.127 2520.22 257.758 2544.36 257.758C2573.71 257.758 2597.52 254.333 2615.78 247.484C2634.37 240.309 2646.28 230.198 2651.5 217.152H2759.12ZM2786.1 81.6387H3073.76V155.022H2786.1V81.6387ZM2871.22 8.25586H2988.64V321.356H2871.22V8.25586ZM3256.97 81.6387H3374.39V321.356H3256.97V81.6387ZM3550.5 74.3004C3569.75 74.3004 3588.34 76.4204 3606.28 80.6603C3624.21 84.574 3640.19 91.4231 3654.22 101.207C3668.57 110.992 3679.98 124.364 3688.46 141.323C3696.94 158.283 3701.18 179.646 3701.18 205.411V321.356H3583.77V220.088C3583.77 195.627 3577.41 178.341 3564.69 168.23C3551.97 157.794 3528.98 152.575 3495.71 152.575C3478.1 152.575 3460.98 154.532 3444.34 158.446C3428.04 162.36 3413.36 167.089 3400.31 172.633C3387.27 177.852 3376.99 183.07 3369.49 188.288L3368.51 169.698C3369.82 163.828 3374.22 155.674 3381.72 145.237C3389.55 134.474 3400.8 123.712 3415.48 112.949C3430.16 102.186 3448.58 93.0538 3470.76 85.5525C3493.27 78.0511 3519.85 74.3004 3550.5 74.3004ZM3871.43 74.3004C3890.67 74.3004 3909.27 76.4204 3927.2 80.6603C3945.14 84.574 3961.12 91.4231 3975.15 101.207C3989.5 110.992 4000.91 124.364 4009.39 141.323C4017.87 158.283 4022.11 179.646 4022.11 205.411V321.356H3904.7V220.088C3904.7 195.627 3898.34 178.341 3885.62 168.23C3872.9 157.794 3849.91 152.575 3816.64 152.575C3799.03 152.575 3781.9 154.532 3765.27 158.446C3748.96 162.36 3734.29 167.089 3721.24 172.633C3708.2 177.852 3697.92 183.07 3690.42 188.288L3689.44 164.806C3690.75 159.914 3695.64 152.575 3704.12 142.791C3712.6 133.007 3724.5 122.896 3739.83 112.46C3755.49 102.023 3774.24 93.0538 3796.09 85.5525C3818.27 78.0511 3843.38 74.3004 3871.43 74.3004ZM4397 235.253H4512.45C4509.52 254.17 4500.06 270.64 4484.08 284.665C4468.42 298.689 4445.43 309.615 4415.1 317.442C4385.09 324.944 4346.77 328.694 4300.13 328.694C4250.89 328.694 4208.32 324.781 4172.45 316.953C4136.9 309.126 4109.5 295.917 4090.26 277.326C4071.02 258.736 4061.39 233.623 4061.39 201.987C4061.39 170.677 4070.69 145.726 4089.28 127.136C4108.2 108.22 4135.43 94.6846 4170.98 86.5309C4206.53 78.3773 4249.58 74.3004 4300.13 74.3004C4349.71 74.3004 4390.31 78.7034 4421.95 87.5093C4453.58 96.3153 4476.9 110.666 4491.91 130.561C4506.91 150.129 4514.08 176.71 4513.43 210.303H4180.76C4182.39 218.783 4186.96 226.611 4194.46 233.786C4202.29 240.961 4214.19 246.832 4230.17 251.398C4246.48 255.638 4268.17 257.758 4295.24 257.758C4323.29 257.758 4346.28 255.801 4364.22 251.887C4382.48 247.973 4393.41 242.429 4397 235.253ZM4295.24 145.237C4260.67 145.237 4234.25 148.988 4215.99 156.489C4198.05 163.991 4187.45 171.492 4184.19 178.993H4399.44C4397.16 170.514 4388.03 162.849 4372.05 156C4356.07 148.825 4330.46 145.237 4295.24 145.237Z" stroke="black" stroke-width="14.9913" mask="url(#path-1-outside-1_1094_99)"/>
</svg>
