<svg width="877" height="877" viewBox="0 0 877 877" fill="none" xmlns="http://www.w3.org/2000/svg">
<rect width="877" height="877" fill="#CFEF00"/>
<path d="M141.422 400.177H569.422C576.264 400.177 582.843 400.765 589.159 401.897C667.509 313.536 625.402 142.967 462.839 142.966C243.45 142.965 141.422 142.966 141.422 142.966V400.177Z" fill="#CFEF00"/>
<path d="M569.422 400.177H141.422V453.627H462.839C519.664 453.627 561.771 432.784 589.159 401.897C582.843 400.765 576.264 400.177 569.422 400.177Z" fill="#CFEF00"/>
<path d="M141.422 400.177H569.422C576.264 400.177 582.843 400.765 589.159 401.897M141.422 400.177V142.966M141.422 400.177V453.627M141.422 142.966C141.422 142.966 243.45 142.965 462.839 142.966C625.402 142.967 667.509 313.536 589.159 401.897M141.422 142.966C141.422 264.287 141.422 332.306 141.422 453.627M462.839 453.627C243.45 453.627 141.422 453.627 141.422 453.627M462.839 453.627C519.664 453.627 561.771 432.784 589.159 401.897M462.839 453.627H141.422M141.422 453.627V734.033H569.422C787.998 734.033 787.144 401.897 589.159 401.897" stroke="black" stroke-width="31.05"/>
</svg>
