<svg width="231" height="241" viewBox="0 0 231 241" fill="none" xmlns="http://www.w3.org/2000/svg">
<path d="M4.28906 240.502C2.07992 240.502 0.289062 238.711 0.289062 236.502V4.45117C0.289062 2.24203 2.07992 0.451172 4.28906 0.451172H226.391C228.601 0.451172 230.391 2.24203 230.391 4.45117V73.1233C230.391 73.8996 230.166 74.6591 229.741 75.3092L201.695 118.291C200.828 119.619 200.828 121.334 201.695 122.662L229.741 165.644C230.166 166.294 230.391 167.053 230.391 167.83V236.502C230.391 238.711 228.601 240.502 226.391 240.502H4.28906ZM83.9626 162.64C83.9626 164.849 85.7535 166.64 87.9626 166.64H126.362C129.539 166.64 131.448 163.115 129.712 160.454L105.052 122.662C104.185 121.334 104.185 119.619 105.052 118.291L129.712 80.4988C131.448 77.8382 129.539 74.3129 126.362 74.3129H87.9626C85.7535 74.3129 83.9626 76.1038 83.9626 78.3129V162.64Z" fill="#CFEF00"/>
</svg>
