<svg width="741" height="738" viewBox="0 0 741 738" fill="none" xmlns="http://www.w3.org/2000/svg">
<path d="M24.8203 324.448H523.103C531.068 324.448 538.728 325.133 546.081 326.45C637.296 223.58 588.275 25.0012 399.017 25.0004C143.602 24.9994 24.8203 25.0004 24.8203 25.0004V324.448Z" fill="#CFEF00"/>
<path d="M523.103 324.448H24.8203V386.675H399.017C465.174 386.675 514.195 362.41 546.081 326.45C538.728 325.133 531.068 324.448 523.103 324.448Z" fill="#CFEF00"/>
<path d="M24.8203 324.448H523.103C531.068 324.448 538.728 325.133 546.081 326.45M24.8203 324.448V25.0004M24.8203 324.448V386.675M24.8203 25.0004C24.8203 25.0004 143.602 24.9994 399.017 25.0004C588.275 25.0012 637.296 223.58 546.081 326.45M24.8203 25.0004C24.8203 166.243 24.8203 245.432 24.8203 386.675M399.017 386.675C143.602 386.675 24.8203 386.675 24.8203 386.675M399.017 386.675C465.174 386.675 514.195 362.41 546.081 326.45M399.017 386.675H24.8203M24.8203 386.675V713.127H523.103C777.571 713.127 776.577 326.45 546.081 326.45" stroke="white" stroke-width="48.05"/>
</svg>
